<?xml version="1.0" standalone="no"?>
<!DOCTYPE svg PUBLIC "-//W3C//DTD SVG 20010904//EN"
 "http://www.w3.org/TR/2001/REC-SVG-20010904/DTD/svg10.dtd">
<svg version="1.0" xmlns="http://www.w3.org/2000/svg"
 width="1000.000000pt" height="1000.000000pt" viewBox="0 0 1000.000000 1000.000000"
 preserveAspectRatio="xMidYMid meet">

<g transform="translate(0.000000,1000.000000) scale(0.100000,-0.100000)"
fill="#000000" stroke="none">
<path d="M0 5000 l0 -5000 5000 0 5000 0 0 5000 0 5000 -5000 0 -5000 0 0
-5000z m6025 2324 c74 -43 135 -80 135 -83 0 -3 -325 -108 -723 -232 l-722
-227 -3 -1406 c-1 -773 -5 -1406 -9 -1406 -3 0 -103 64 -222 142 -119 78 -217
143 -219 144 -4 2 -442 3008 -439 3010 3 2 1971 131 2024 133 36 1 64 -11 178
-75z m-307 -1591 l-3 -138 -240 -81 -240 -81 -3 -76 -3 -75 -117 -42 c-64 -23
-129 -44 -144 -47 l-28 -5 0 225 0 226 53 16 c28 8 201 60 382 114 182 55 334
100 338 100 4 1 6 -61 5 -136z m-928 -2444 c61 -14 134 -62 175 -116 119 -156
82 -410 -74 -514 -97 -64 -250 -77 -353 -32 -65 30 -133 95 -165 162 -25 50
-28 66 -28 161 0 124 17 171 90 249 87 93 206 123 355 90z m-3072 -51 l-3 -53
-172 -3 -173 -2 0 -85 0 -85 170 0 170 0 0 -55 0 -55 -170 0 -170 0 0 -145 0
-145 -60 0 -60 0 0 340 0 340 236 0 235 0 -3 -52z m432 -288 l0 -340 -65 0
-65 0 0 340 0 340 65 0 65 0 0 -340z m640 105 l165 -229 3 232 2 232 65 0 65
0 0 -340 0 -340 -62 0 -63 0 -170 239 -170 239 -3 -239 -2 -239 -65 0 -65 0 0
340 0 341 67 -3 67 -3 166 -230z m937 1 l168 -234 3 234 2 234 60 0 60 0 0
-340 0 -340 -57 0 -58 0 -175 244 -175 245 -3 -245 -2 -244 -60 0 -60 0 0 340
0 340 64 0 65 0 168 -234z m1887 12 c63 -156 93 -217 99 -207 5 8 46 106 91
219 l83 205 86 3 87 3 0 -341 0 -340 -60 0 -60 0 -2 249 -3 249 -100 -249
c-100 -249 -100 -249 -129 -247 -28 3 -32 11 -125 241 l-96 239 -3 -241 -2
-241 -65 0 -65 0 0 340 0 340 88 0 87 0 89 -222z m1264 170 l-3 -53 -172 -3
-173 -2 0 -85 0 -85 171 0 170 0 -3 -52 -3 -53 -167 -3 -168 -2 0 -90 0 -90
173 -2 172 -3 3 -52 3 -53 -235 0 -236 0 0 340 0 340 236 0 235 0 -3 -52z
m618 -183 l169 -235 3 235 2 235 60 0 60 0 0 -340 0 -340 -58 0 -58 0 -177
246 -177 247 0 -247 0 -246 -60 0 -60 0 0 340 0 340 63 0 64 0 169 -235z
m1117 -91 c71 -179 131 -333 134 -341 5 -11 -7 -13 -63 -11 l-68 3 -24 63 -24
62 -160 -2 -160 -3 -25 -62 -25 -63 -64 0 c-35 0 -64 4 -64 8 0 4 15 46 34 93
18 46 77 195 131 332 l97 247 77 0 77 0 127 -326z"/>
<path d="M4581 3168 c-82 -40 -132 -159 -111 -266 12 -67 31 -102 74 -139 46
-41 96 -56 166 -51 74 5 129 40 167 105 25 43 28 58 28 133 0 89 -13 128 -59
178 -58 64 -179 83 -265 40z"/>
<path d="M8348 3022 c-32 -86 -58 -160 -58 -165 0 -4 54 -7 120 -7 66 0 120 2
120 5 0 9 -113 310 -119 317 -3 4 -32 -64 -63 -150z"/>
</g>
</svg>
