<?xml version="1.0" encoding="UTF-8" standalone="no"?>
<svg
   xmlns:dc="http://purl.org/dc/elements/1.1/"
   xmlns:cc="http://creativecommons.org/ns#"
   xmlns:rdf="http://www.w3.org/1999/02/22-rdf-syntax-ns#"
   xmlns:svg="http://www.w3.org/2000/svg"
   xmlns="http://www.w3.org/2000/svg"
   xmlns:sodipodi="http://sodipodi.sourceforge.net/DTD/sodipodi-0.dtd"
   xmlns:inkscape="http://www.inkscape.org/namespaces/inkscape"
   version="1.1"
   id="svg2"
   xml:space="preserve"
   width="1333.3333"
   height="1333.3333"
   viewBox="0 0 1333.3333 1333.3333"
   sodipodi:docname="finnomena-logo-social (3).ai"><metadata
     id="metadata8"><rdf:RDF><cc:Work
         rdf:about=""><dc:format>image/svg+xml</dc:format><dc:type
           rdf:resource="http://purl.org/dc/dcmitype/StillImage" /></cc:Work></rdf:RDF></metadata><defs
     id="defs6"><clipPath
       clipPathUnits="userSpaceOnUse"
       id="clipPath34"><path
         d="M 0,1000 H 1000 V 0 H 0 Z"
         id="path32" /></clipPath></defs><sodipodi:namedview
     pagecolor="#ffffff"
     bordercolor="#666666"
     borderopacity="1"
     objecttolerance="10"
     gridtolerance="10"
     guidetolerance="10"
     inkscape:pageopacity="0"
     inkscape:pageshadow="2"
     inkscape:window-width="640"
     inkscape:window-height="480"
     id="namedview4" /><g
     id="g10"
     inkscape:groupmode="layer"
     inkscape:label="finnomena-logo-social (3)"
     transform="matrix(1.3333333,0,0,-1.3333333,0,1333.3333)"><path
       d="M 0,0 H 1000 V 1000 H 0 Z"
       style="fill:#000000;fill-opacity:1;fill-rule:nonzero;stroke:none"
       id="path12" /><g
       id="g14"
       transform="translate(211.6509,532.3877)"><path
         d="M 0,0 H 44.312 V -9.99 H 11.346 v -16.772 h 32.288 v -9.987 H 11.346 V -64.675 H 0 Z"
         style="fill:#ffffff;fill-opacity:1;fill-rule:nonzero;stroke:none"
         id="path16" /></g><path
       d="m 285.527,532.388 h 11.344 v -64.675 h -11.344 z"
       style="fill:#ffffff;fill-opacity:1;fill-rule:nonzero;stroke:none"
       id="path18" /><g
       id="g20"
       transform="translate(341.3691,514.8354)"><path
         d="M 0,0 V -47.123 H -11.344 V 17.552 H 0.29 L 33.355,-28.311 V 17.552 H 44.699 V -47.123 H 33.742 Z"
         style="fill:#ffffff;fill-opacity:1;fill-rule:nonzero;stroke:none"
         id="path22" /></g><g
       id="g24"
       transform="translate(430.5601,514.8354)"><path
         d="M 0,0 V -47.123 H -11.344 V 17.552 H 0.29 L 33.354,-28.311 V 17.552 H 44.699 V -47.123 H 33.742 Z"
         style="fill:#ffffff;fill-opacity:1;fill-rule:nonzero;stroke:none"
         id="path26" /></g><g
       id="g28"><g
         id="g30"
         clip-path="url(#clipPath34)"><g
           id="g36"
           transform="translate(538.5601,523.3677)"><path
             d="m 0,0 c -13.088,0 -21.429,-9.987 -21.429,-23.368 0,-13.283 8.341,-23.367 21.429,-23.367 12.994,0 21.431,10.084 21.431,23.367 C 21.431,-9.987 12.994,0 0,0 m 0,10.084 c 19.394,0 33.065,-14.155 33.065,-33.452 0,-19.294 -13.671,-33.452 -33.065,-33.452 -19.392,0 -33.063,14.158 -33.063,33.452 0,19.297 13.671,33.452 33.063,33.452"
             style="fill:#ffffff;fill-opacity:1;fill-rule:nonzero;stroke:none"
             id="path38" /></g><g
           id="g40"
           transform="translate(657.8149,516.6772)"><path
             d="m 0,0 -19.879,-48.965 h -4.849 L -44.507,0 V -48.965 H -55.851 V 15.71 h 15.998 L -22.304,-27.826 -4.657,15.71 H 11.344 V -48.965 H 0 Z"
             style="fill:#ffffff;fill-opacity:1;fill-rule:nonzero;stroke:none"
             id="path42" /></g><g
           id="g44"
           transform="translate(702.3042,532.3877)"><path
             d="M 0,0 H 44.311 V -9.99 H 11.344 v -16.772 h 32.287 v -9.987 H 11.344 v -17.939 h 32.967 v -9.987 H 0 Z"
             style="fill:#ffffff;fill-opacity:1;fill-rule:nonzero;stroke:none"
             id="path46" /></g><g
           id="g48"
           transform="translate(788.9761,514.8354)"><path
             d="M 0,0 V -47.123 H -11.344 V 17.552 H 0.29 L 33.354,-28.311 V 17.552 H 44.699 V -47.123 H 33.742 Z"
             style="fill:#ffffff;fill-opacity:1;fill-rule:nonzero;stroke:none"
             id="path50" /></g><g
           id="g52"
           transform="translate(880.396,490.1108)"><path
             d="M 0,0 H 24.24 L 12.122,32.677 Z M 27.442,-9.987 H -3.199 L -7.95,-22.398 H -20.361 L 5.043,42.277 H 19.199 L 44.604,-22.398 H 32.193 Z"
             style="fill:#ffffff;fill-opacity:1;fill-rule:nonzero;stroke:none"
             id="path54" /></g><g
           id="g56"
           transform="translate(168.4009,577.7441)"><path
             d="m 0,0 -93.401,-6.03 19.748,-135.943 20.554,-13.515 v 127.449 l 66.07,20.733 z"
             style="fill:#f7a501;fill-opacity:1;fill-rule:nonzero;stroke:none"
             id="path58" /></g><g
           id="g60"
           transform="translate(125.7759,477.4897)"><path
             d="m 0,0 12.844,4.38 v 6.746 L 35.19,18.742 V 31.196 L 0,20.755 Z"
             style="fill:#f7a501;fill-opacity:1;fill-rule:nonzero;stroke:none"
             id="path62" /></g></g></g></g></svg>
